PathFileType	4	(X/Y/Z)	C:/Users/beibeiliu/ov580/test_trc/capture2\sequence.27_training_dense_right.trc
DataRate	CameraRate	NumFrames	NumMarkers	Units	OrigDataRate	OrigDataStartFrame	OrigNumFrames
120	120	10	19	mm	120	261	347
Frame#	Time	ThumbCMC			ThumbMCP			ThumbIP			ThumbTip			IndexMCP			IndexPIP			IndexTip			MiddleMCP			MiddlePIP			MiddleTip			RingMCP			RingPIP			RingTip			PinkyMCP			PinkyPIP			PinkyTip			BackHand1			BackHand2			BackHand3	
		X0	Y0	Z0	X1	Y1	Z1	X2	Y2	Z2	X3	Y3	Z3	X4	Y4	Z4	X5	Y5	Z5	X6	Y6	Z6	X7	Y7	Z7	X8	Y8	Z8	X9	Y9	Z9	X10	Y10	Z10	X11	Y11	Z11	X12	Y12	Z12	X13	Y13	Z13	X14	Y14	Z14	X15	Y15	Z15	X16	Y16	Z16	X17	Y17	Z17	X18	Y18	Z18	
260	2.16667	108.619	43.4146	51.7749	97.1263	48.3557	27.2528	94.5646	56.3397	-1.35097	95.0222	55.3061	-26.9184	117.999	32.2795	-23.5726	91.2562	22.6865	-26.6493	85.2284	22.8574	8.07988	122.54	14.0308	-22.5128	90.1445	6.12203	-21.8456	91.5143	8.63221	15.6699	120.018	-3.04792	-19.4466	91.2264	-6.94891	-9.74668	99.3188	0.861178	22.7719	122.075	-22.1093	-11.8693	96.1329	-20.1098	0.934484	105.22	-8.24566	28.8424	153.635	-2.09768	29.4148	150.696	-1.98579	60.3981	145.344	29.4343	42.1712	
261	2.175	112.272	42.8366	51.3039	99.9518	51.2095	22.509	97.963	54.9511	-5.66809	98.3463	49.8708	-28.2188	120.071	33.6208	-22.4161	90.6109	29.6901	-27.8993	85.9882	24.4738	6.84465	119.795	14.8764	-25.0876	89.8041	6.41572	-19.3974	93.7456	13.5644	18.2097	117.458	-5.04341	-20.2477	90.3118	-8.14899	-10.1751	99.4902	4.08118	23.4713	122.368	-21.2373	-7.47965	92.5356	-18.1257	2.41777	105.881	-1.79704	28.9066	153.042	-3.72874	27.5406	148.422	-0.868954	59.8158	144.375	28.3598	43.9649	
262	2.18333	114.388	46.03	46.9505	98.6146	53.2088	25.4238	95.5866	60.007	-2.83866	95.3396	53.1123	-27.6429	118.671	33.6548	-24.5596	91.6162	26.6403	-25.2061	87.1273	25.2523	8.60507	119.163	10.6308	-23.8578	87.2514	8.42303	-17.0139	93.6741	13.085	17.1485	117.975	-5.60983	-18.1207	88.3235	-2.93482	-7.45835	99.2211	2.96618	25.1011	116.949	-21.5465	-7.89434	90.5569	-15.1384	2.18814	101.071	-4.42103	29.5335	150.795	-8.15876	30.7721	149.992	-4.69911	60.0222	147.54	26.4721	40.8077	
263	2.19167	115.803	46.12	45.2338	101.125	54.2822	22.6736	97.6977	57.7957	-7.18736	95.2264	53.9288	-29.125	120.156	34.2869	-24.2137	89.6569	32.498	-24.4292	86.1487	29.3284	7.17489	120.35	10.7307	-22.2111	88.9931	10.5551	-19.1291	93.0871	18.7161	18.1104	115.852	-4.97063	-18.6326	86.1655	-4.81131	-6.75835	96.7049	2.84563	24.4538	115.76	-22.7443	-7.14178	89.2738	-13.321	4.15477	99.1692	-0.850279	30.9539	149.799	-6.94466	30.0918	148.373	-4.71924	61.1287	145.147	25.9433	43.9938	
264	2.2	115.296	49.3045	49.7617	101.188	54.5426	24.6927	97.3338	58.7011	-7.22808	94.3325	51.0523	-26.6648	119.949	33.0447	-24.0994	91.7537	33.8575	-24.3254	89.0564	28.6331	8.28621	118.553	10.8543	-22.8006	87.0358	11.3834	-17.0899	94.8564	17.9023	20.6068	115.268	-7.53338	-17.1316	86.2072	0.944951	-6.29244	99.8654	5.26446	26.7043	114.305	-19.7718	-6.36966	87.4112	-10.2663	4.32825	101.973	1.96413	31.8373	148.255	-10.763	31.3425	145.91	-4.53869	58.85	145.736	25.2603	43.8955	
265	2.20833	118.101	45.6167	45.5169	102.776	55.9104	20.9426	97.486	60.1822	-8.20853	93.8713	52.7231	-31.7217	121.719	31.3311	-23.1265	91.4337	32.2337	-24.0707	89.8555	31.0423	11.0081	116.078	12.0154	-24.7064	87.5498	14.0129	-16.9909	93.6222	16.3261	19.5164	111.927	-4.48611	-16.9136	83.3057	0.268708	-2.57885	95.5252	7.56574	24.5403	108.817	-21.9854	-7.84313	85.9357	-10.5645	3.21617	99.4665	-1.4167	33.8887	146.242	-11.1815	26.5021	145.45	-5.76426	62.895	147.417	25.1313	42.8882	
266	2.21667	118.343	49.3469	44.3709	102.589	54.9844	22.0965	98.4685	57.1806	-4.76405	92.9315	53.084	-32.1095	124.689	30.6275	-20.8978	90.8323	34.3235	-21.7678	90.4956	30.5033	10.0653	115.367	10.8845	-23.4939	85.6083	16.3863	-15.6692	91.7564	22.6697	19.0435	111.669	-2.42954	-17.0422	83.9224	-1.29212	-4.95696	97.2262	8.39342	26.3786	111.508	-19.4733	-4.77996	82.8272	-11.283	6.99862	97.5184	3.98592	33.9679	146.2	-11.8128	29.2786	142.442	-7.95765	58.3341	145.383	21.4893	44.081	
267	2.225	118.673	45.2615	48.1431	104.295	55.6742	20.7647	98.2013	59.2479	-5.70968	93.1435	51.3776	-28.9862	123.933	36.1902	-21.1563	93.5816	32.9753	-23.1616	93.5399	31.5582	13.5458	116.055	14.4197	-22.9328	86.0025	17.2889	-14.7738	90.8873	22.3119	19.8047	109.368	-3.4764	-17.3552	83.6555	7.09526	-3.83915	98.4735	12.6188	27.3891	107.43	-18.5096	-4.61044	81.4975	-8.54694	6.57828	97.8151	3.03719	35.7133	144.137	-13.4688	26.8182	142.683	-9.52558	59.2999	146.793	21.3748	40.4739	
268	2.23333	120.776	48.8493	49.0437	104.202	60.2015	19.9152	98.0033	61.1829	-2.78403	93.2146	53.154	-31.4601	121.915	32.0843	-23.9761	92.7097	39.2559	-20.2779	93.0249	35.6154	12.0157	114.919	12.5365	-22.1209	87.0027	21.848	-16.6315	92.6792	21.2671	22.7671	107.125	-1.04033	-17.4295	82.4811	10.2799	-3.03987	95.8006	14.6862	26.3705	102.914	-19.2096	-4.81693	80.1149	-2.34881	9.83825	95.7019	2.93974	38.9657	141.109	-12.9161	27.0434	137.422	-11.8249	61.9314	146.36	21.5819	45.8358	
269	2.24167	120.936	45.4579	45.7101	105.733	57.9374	20.733	97.5437	62.2268	-4.99324	91.5246	52.6133	-28.8751	123.993	35.7662	-21.1957	92.2265	37.7626	-18.9593	93.1399	33.1978	11.6652	117.131	15.016	-20.6926	83.7044	20.9676	-13.9451	91.6037	22.6416	23.0546	107.239	-3.73834	-14.8126	81.0975	10.2143	-4.96837	92.6177	15.5574	26.0178	98.2165	-19.2191	-4.62091	78.602	-1.52915	10.1353	94.9066	3.18316	37.9195	139.989	-14.2133	28.1903	138.393	-10.9442	59.2603	147.129	20.2164	43.9093	
